<svg fill="none" xmlns="http://www.w3.org/2000/svg" viewBox="0 0 392 410" class="design-iconfont">
  <mask id="n6luie95s__s0c0d2gdra" style="mask-type:alpha" maskUnits="userSpaceOnUse" x="0" y="0" width="392" height="410">
    <path fill="#D9D9D9" d="M0 0H392V410H0z"/>
  </mask>
  <g mask="url(#n6luie95s__s0c0d2gdra)">
    <path d="M285.373 17.4667C285.373 17.4667 249.096 17.2726 244.364 36.4641L134.345 482.723M292.878 19.5696C292.878 19.5696 256.705 19.4012 251.973 38.5927L141.968 484.792M300.464 21.5978C300.464 21.5978 264.276 21.4258 259.545 40.6173L149.54 486.816M308.04 23.6707C308.04 23.6707 271.851 23.4986 267.12 42.6901L157.115 488.889M315.615 25.7436C315.615 25.7436 279.427 25.5715 274.695 44.7631L164.69 490.962M323.175 27.8129C323.175 27.8129 287.002 27.6445 282.27 46.836L172.266 493.035M330.751 29.8858C330.751 29.8858 294.562 29.7137 289.831 48.9052L179.826 495.104M338.326 31.9587C338.326 31.9587 302.138 31.7866 297.406 50.9781L187.401 497.177M345.901 34.0316C345.901 34.0316 309.758 33.8706 305.026 53.0621L195.021 499.261M353.435 36.0786C353.435 36.0786 317.262 35.9102 312.531 55.1017L202.526 501.301M361.037 38.1738C361.037 38.1738 324.849 38.0017 320.117 57.1932L210.112 503.392M368.612 40.2467C368.612 40.2467 332.424 40.0746 327.692 59.2661L217.688 505.465M376.191 42.3047C376.191 42.3047 339.999 42.1475 335.268 61.3391L225.263 507.538M383.751 44.374C383.751 44.374 347.56 44.2168 342.828 63.4083L232.823 509.607M171.549 226.562C186.397 232.702 181.935 243.116 181.935 243.116L155.191 351.595L-25.6749 311.095L26.4663 99.6013L218.156 142.769M165.412 225.191C179.757 231.065 175.644 241.344 175.644 241.344L150.214 344.492L-19.01 306.547L30.1983 106.949L216.589 149.127M159.289 223.761C173.128 229.383 169.308 239.497 169.308 239.497L145.177 337.375L-12.4048 301.984L33.8707 114.283L215.021 155.484M153.163 222.345C166.498 227.702 163.013 237.677 163.013 237.677L140.189 330.255L-5.75487 297.433L37.5841 121.642L213.499 161.853M147.036 220.929C159.869 226.02 156.706 235.838 156.706 235.838L135.189 323.115L0.88754 292.848L41.2864 128.983L211.883 168.214M140.913 219.499C153.243 224.323 150.396 234.014 150.396 234.014L130.186 315.991L7.515 288.259L44.9553 136.394L210.327 174.527M134.832 218.094C146.673 222.593 144.135 232.186 144.135 232.186L125.231 308.862L14.2133 283.703L48.7171 143.75L208.745 180.944M128.661 216.668C139.966 221.034 137.78 230.35 137.78 230.35L120.183 301.727L20.811 279.107L52.3783 151.065L207.211 187.357M122.538 215.237C133.34 219.274 131.477 228.496 131.477 228.496L115.187 294.572L27.4534 274.522L56.0842 158.39L205.651 193.685M116.412 213.821C126.711 217.593 125.164 226.687 125.164 226.687L110.18 287.463L34.0884 269.967L59.7827 165.746L204.08 200.057M110.285 212.406C120.082 215.911 118.872 224.852 118.872 224.852L105.196 280.327L40.7308 265.382L63.4886 173.072L202.516 206.4M104.162 210.975C106.711 211.752 108.925 213.362 110.448 215.548C111.971 217.734 112.716 220.368 112.563 223.028L100.193 273.203L47.3844 260.815L67.2057 180.416L200.949 212.757M98.0361 209.56C100.477 210.346 102.596 211.905 104.073 214.002C105.551 216.098 106.306 218.618 106.226 221.181L95.1632 266.056L53.997 256.223L70.8818 187.735L199.355 219.093M91.9097 208.144C94.2581 208.933 96.2984 210.442 97.741 212.456C99.1836 214.47 99.9551 216.887 99.9462 219.365L90.1897 258.939L60.6655 251.66L74.6138 195.083L197.773 225.446M311.857 294.415C297.023 288.278 301.471 277.861 301.471 277.861L328.215 169.382L510.364 214.288L457.018 430.666L264.016 383.083M317.998 295.834C303.653 289.96 307.766 279.681 307.766 279.681L333.2 176.518L503.631 218.535L453.321 422.6L265.724 376.35M324.103 297.339C310.279 291.72 314.084 281.602 314.084 281.602L338.233 183.649L496.932 222.775L449.65 414.556L267.338 369.609M330.247 298.68C316.926 293.327 320.412 283.352 320.412 283.352L343.236 190.774L490.158 226.996L445.905 406.494L268.997 362.879M336.374 300.096C323.552 295.023 326.719 285.191 326.719 285.191L348.236 197.913L483.41 231.239L442.189 398.439L270.656 356.15M342.497 301.526C330.181 296.705 333.014 287.011 333.014 287.011L353.228 205.019L476.67 235.452L438.495 390.295L272.338 349.331M348.623 302.942C336.796 298.447 339.32 288.85 339.32 288.85L358.224 212.174L469.889 239.703L434.732 382.307L273.934 342.664M354.749 304.357C343.458 299.994 345.63 290.675 345.63 290.675L363.227 219.298L463.19 243.943L431.064 374.248L275.641 335.931M360.872 305.788C350.069 301.751 351.932 292.528 351.932 292.528L368.223 226.452L456.453 248.204L427.356 366.227L277.293 329.231M366.998 307.204C356.699 303.432 358.246 294.338 358.246 294.338L373.211 233.636L449.694 252.492L423.633 358.202L278.945 322.531M373.11 308.615C363.298 305.107 364.523 296.169 364.523 296.169L378.199 240.694L442.935 256.654L419.902 350.08L280.619 315.742M379.262 310.053C376.711 309.281 374.494 307.672 372.97 305.485C371.446 303.298 370.703 300.662 370.862 298.001L383.232 247.826L436.236 260.893L416.231 342.037L282.233 309.001M385.389 311.469C382.948 310.682 380.829 309.123 379.351 307.027C377.874 304.93 377.118 302.411 377.198 299.847L388.262 254.973L429.533 265.148L412.56 333.993L283.937 302.282M391.515 312.884C389.163 312.098 387.119 310.59 385.674 308.575C384.228 306.56 383.455 304.14 383.464 301.66L393.22 262.086L422.759 269.369L408.811 325.946L285.592 295.568" stroke="#E4DCC7" stroke-opacity=".3" stroke-width="1.5" stroke-miterlimit="10"/>
  </g>
</svg>
