<svg version="1.2" xmlns="http://www.w3.org/2000/svg" viewBox="0 0 50 50" width="50" height="50">
	<title>Group 105-svg</title>
	<style>
		.s0 { fill: none;stroke: #cbb688;stroke-linecap: round;stroke-linejoin: round } 
	</style>
	<path id="Layer" class="s0" d="m16.5 7h5.5m-7 2.5h2.5m5.5 0h-2.5m-4.5 1.5v1c0 1.7 1.3 3 3 3m3.5-4v0.5c0 1.9-1.6 3.5-3.5 3.5m-1.5-5.5v1.5c0 0.8 0.7 1.5 1.5 1.5m-1.5-3h3m0 0v1.5c0 0.8-0.7 1.5-1.5 1.5m0 0v2.5m0 0v2m-4 26.5v-23m11 7l0.8 1.5c0.7 1.4 0.2 3.1-1.2 3.9l-2.6 1.6v-14m-4-3.5c-0.2 0.5-0.7 1.7-1.5 2.5-0.8 0.8-2 1-2.5 1m4-3.5c0.3 0.7 0.5 1.5 1.5 2.5 0.9 0.9 1.7 0.8 2.5 1m-4-3.5h-0.5c-1.9 0-3.5 1.6-3.5 3.5m4-3.5h0.5c1.9 0 3.5 1.6 3.5 3.5m-5.5 0.5v21.3c0 0.6 0.6 1.2 1.3 1.2 0.6 0 1.2-0.6 1.2-1.3v-21.2m-4 1.5h5.5m6.5-12.5h5m-2.5 3v3m0 0l-5.5 4.5m5.5-4.5c0.4 0.4 1 1 1.6 1.8m1.4 16.2c-1-0.3-3-1.5-3-3.5 0-2.5 3.5-4.5 3.5-8 0-0.8-0.2-1.6-0.5-2.4m-1.4-2.3c-1.7 1.4-5.2 4.4-5.6 5.2m5.6-5.2c0.5 0.6 1 1.5 1.4 2.3m0 0c-1.8 1.5-5.5 4.5-5.5 4.9m-3.5 12.5l3.5-3.5v5.5c0 1.5-1 3-2 3.5m8-5.5l-4-3.5v5.5c0 2 1 3 2 3.5"/>
	<path id="Layer" class="s0" d="m26 10c0-1.7 1.3-3 3-3h3c1.7 0 3 1.3 3 3 0 1.7-1.3 3-3 3h-3c-1.7 0-3-1.3-3-3z"/>
</svg>