<svg fill="none" xmlns="http://www.w3.org/2000/svg" viewBox="0 0 392 410" class="design-iconfont"><mask id="a" style="mask-type:alpha" maskUnits="userSpaceOnUse" x="0" y="0" width="392" height="410"><path fill="#D9D9D9" d="M0 0h392v410H0z"/></mask><g mask="url(#a)"><path d="M285.373 17.467s-36.277-.194-41.009 18.997L134.345 482.723M292.878 19.57s-36.173-.169-40.905 19.023L141.968 484.792M300.464 21.598s-36.188-.172-40.919 19.02L149.54 486.815M308.04 23.67s-36.189-.172-40.92 19.02L157.115 488.888m158.5-463.145s-36.188-.172-40.92 19.02L164.69 490.961m158.485-463.15s-36.173-.168-40.905 19.024l-110.004 446.2m158.485-463.15s-36.189-.171-40.92 19.02L179.826 495.104m158.5-463.145s-36.188-.172-40.92 19.02L187.401 497.176m158.5-463.145s-36.143-.161-40.875 19.03l-110.005 446.2M353.435 36.079s-36.173-.169-40.904 19.023L202.526 501.3M361.037 38.174s-36.188-.172-40.92 19.02L210.112 503.391m158.5-463.145s-36.188-.172-40.92 19.02L217.688 505.464m158.503-463.16s-36.192-.157-40.923 19.034l-110.005 446.2M383.751 44.374s-36.191-.157-40.923 19.034L232.823 509.607m-61.274-283.045c14.848 6.14 10.386 16.554 10.386 16.554l-26.744 108.479-180.866-40.5L26.466 99.601l191.69 43.168m-52.744 82.422c14.345 5.874 10.232 16.153 10.232 16.153l-25.43 103.148-169.224-37.945 49.208-199.598 186.391 42.178m-57.3 74.634c13.839 5.622 10.019 15.736 10.019 15.736l-24.131 97.878-157.582-35.391 46.276-187.701 181.15 41.201m-61.858 66.861c13.335 5.357 9.85 15.332 9.85 15.332l-22.824 92.578-145.944-32.822 43.34-175.791 175.914 40.211m-66.463 59.076c12.833 5.091 9.67 14.909 9.67 14.909l-21.517 87.277L.888 292.848l40.398-163.865 170.597 39.231m-70.97 51.285c12.33 4.824 9.483 14.515 9.483 14.515l-20.21 81.977L7.515 288.259l37.44-151.865 165.372 38.133m-75.495 43.567c11.841 4.499 9.303 14.092 9.303 14.092l-18.904 76.676-111.018-25.159L48.717 143.75l160.028 37.194m-80.084 35.724c11.305 4.366 9.119 13.682 9.119 13.682l-17.597 71.377-99.372-22.62 31.567-128.042 154.833 36.292m-84.673 27.88c10.802 4.037 8.939 13.259 8.939 13.259l-16.29 66.076-87.734-20.05L56.084 158.39l149.567 35.295m-89.239 20.136c10.299 3.772 8.752 12.866 8.752 12.866l-14.984 60.776-76.092-17.496 25.695-104.221 144.297 34.311m-93.795 12.349c9.797 3.505 8.587 12.446 8.587 12.446l-13.676 55.475-64.465-14.945 22.758-92.31L202.516 206.4m-98.354 4.575a11.883 11.883 0 0 1 8.401 12.053l-12.37 50.175-52.809-12.388 19.822-80.399 133.743 32.341M98.036 209.56a11.817 11.817 0 0 1 8.19 11.621l-11.063 44.875-41.166-9.833 16.885-68.488 128.473 31.358M91.91 208.144a11.794 11.794 0 0 1 8.036 11.221l-9.756 39.574-29.524-7.279 13.948-56.577 123.159 30.363m114.084 68.969c-14.834-6.137-10.386-16.554-10.386-16.554l26.744-108.479 182.149 44.906-53.346 216.378-193.002-47.583m53.982-87.249c-14.345-5.874-10.232-16.153-10.232-16.153L333.2 176.518l170.431 42.017-50.31 204.065-187.597-46.25m58.379-79.011c-13.824-5.619-10.019-15.737-10.019-15.737l24.149-97.953 158.699 39.126-47.282 191.781-182.312-44.947m62.909-70.929c-13.321-5.353-9.835-15.328-9.835-15.328l22.824-92.578 146.922 36.222-44.253 179.498-176.908-43.615m67.377-62.783c-12.822-5.073-9.655-14.905-9.655-14.905l21.517-87.278 135.174 33.326-41.221 167.2-171.533-42.289m71.841-54.624c-12.316-4.821-9.483-14.515-9.483-14.515l20.214-81.992 123.442 30.433-38.175 154.843-166.157-40.964m76.285-46.389c-11.827-4.495-9.303-14.092-9.303-14.092l18.904-76.676 111.665 27.529-35.157 142.604-160.798-39.643m80.815-38.307c-11.291-4.363-9.119-13.682-9.119-13.682l17.597-71.377 99.963 24.645-32.126 130.305-155.423-38.317m85.231-30.143c-10.803-4.037-8.94-13.26-8.94-13.26l16.291-66.076 88.23 21.752-29.097 118.023-150.063-36.996m89.705-22.027c-10.299-3.772-8.752-12.866-8.752-12.866l14.965-60.702 76.483 18.856-26.061 105.71-144.688-35.671m94.165-13.916c-9.812-3.508-8.587-12.446-8.587-12.446l13.676-55.475 64.736 15.96-23.033 93.426-139.283-34.338m98.643-5.689a11.854 11.854 0 0 1-8.4-12.052l12.37-50.175 53.004 13.067-20.005 81.144-133.998-33.036m103.156 2.468a11.827 11.827 0 0 1-8.191-11.622l11.064-44.874 41.271 10.175-16.973 68.845-128.623-31.711m107.578 10.602a11.784 11.784 0 0 1-8.051-11.224l9.756-39.574 29.539 7.283-13.948 56.577-123.219-30.378" stroke="#E4DCC7" stroke-opacity=".3" stroke-width="1.5" stroke-miterlimit="10"/></g></svg>